<?xml version="1.0" encoding="utf-8"?>
<!-- Generator: Adobe Illustrator 24.3.0, SVG Export Plug-In . SVG Version: 6.00 Build 0)  -->
<svg version="1.1" id="Icons" xmlns="http://www.w3.org/2000/svg" xmlns:xlink="http://www.w3.org/1999/xlink" x="0px" y="0px"
	 viewBox="0 0 512 512" style="enable-background:new 0 0 512 512;" xml:space="preserve">
<path d="M339.1,471.5H172.8c-8.4,0-16.5-2.1-23.6-6C62.8,416.7,9,324.8,8.9,225.6V211c0-6.6,5.3-11.9,11.9-11.9h470.5
	c6.6,0,11.9,5.3,11.9,11.9v14.6c-0.1,99.2-53.9,191.1-140.3,239.9c-7.2,4-15.1,6-23.1,6L339.1,471.5z M32.7,225.6
	c0.1,90.6,49.2,174.6,128.3,219.1c3.6,2,7.6,3,11.9,3h166.4c4.2,0,8.3-1,11.9-3c79-44.5,128.1-128.5,128.2-219.1v-2.7H32.7V225.6z"
	/>
<path d="M339.2,466.5H172.8c-7.4,0-14.7-1.8-21.1-5.4C66.7,413.2,14,323.2,13.9,225.6V211c0-3.8,3.1-6.9,6.9-6.9h470.5
	c3.8,0,6.9,3.1,6.9,6.9v14.6c-0.1,97.6-52.8,187.6-137.8,235.5C353.9,464.7,346.6,466.6,339.2,466.5z M27.7,217.9v7.7
	c0.1,92.6,50.1,178,130.8,223.5c4.4,2.4,9.3,3.6,14.4,3.6h166.4c5,0,9.9-1.2,14.3-3.6c80.7-45.5,130.7-130.9,130.8-223.5v-7.7
	L27.7,217.9z"/>
<path d="M323.2,278.9c-6.6,0-11.9-5.3-11.9-11.9s5.3-11.9,11.9-11.9h20.5c6.5,0,11.9,5.3,11.9,11.8c0.1,3.1-1.1,6.1-3.3,8.4
	c-2.3,2.3-5.3,3.6-8.6,3.6H323.2z"/>
<path d="M343.7,273.9h-20.5c-3.8,0-6.9-3.1-6.9-6.9s3.1-6.9,6.9-6.9h20.5c3.8,0,6.9,3.1,6.9,6.9
	C350.7,270.8,347.6,273.9,343.7,273.9z"/>
<path d="M24,278.9c-6.6,0-11.9-5.3-11.9-11.9s5.3-11.9,11.9-11.9h182.2c6.5,0,11.9,5.3,11.9,11.8c0.1,3.1-1.1,6.1-3.3,8.4
	c-2.2,2.3-5.3,3.6-8.5,3.6H24z"/>
<path d="M206.3,273.9H24c-3.8,0-6.9-3.1-6.9-6.9s3.1-6.9,6.9-6.9h182.2c3.8,0,6.9,3.1,6.9,6.9C213.2,270.8,210.1,273.9,206.3,273.9z
	"/>
<path d="M254.7,278.9c-6.6,0-11.9-5.3-11.9-11.9s5.3-11.9,11.9-11.9h20.1c6.6,0,11.9,5.3,11.9,11.9s-5.3,11.9-11.9,11.9H254.7z"/>
<path d="M274.8,273.9h-20.1c-3.8,0-6.9-3.1-6.9-6.9s3.1-6.9,6.9-6.9h20.1c3.8,0,6.9,3.1,6.9,6.9
	C281.7,270.8,278.6,273.9,274.8,273.9z"/>
<path d="M392.2,278.9c-6.6,0-11.9-5.3-11.9-11.9s5.3-11.9,11.9-11.9H488c6.6,0,11.9,5.3,11.9,11.9s-5.3,11.9-11.9,11.9H392.2z"/>
<path d="M488,273.9h-95.8c-3.8,0-6.9-3.1-6.9-6.9s3.1-6.9,6.9-6.9H488c3.8,0,6.9,3.1,6.9,6.9S491.8,273.9,488,273.9z"/>
<path d="M286,223c-2.2,0-4.4-0.6-6.3-1.8c-5.6-3.5-7.3-10.8-3.8-16.4l0.3-0.5l0,0c0,0,0-0.1,0.1-0.1l93.4-140.7
	c9.6-14.4,25.6-23,42.9-23c10.1,0,20,3,28.4,8.6c20.9,13.9,28.7,40.6,18.6,63.5l-45.2,103.2c-1.9,4.3-6.2,7.1-10.9,7.1
	c-6.6,0-11.9-5.3-11.9-11.9c0-1.6,0.4-3.3,1-4.8L437.9,103c3-6.8,3.2-14.3,0.5-21.1c-2.6-6.9-7.8-12.3-14.6-15.3
	c-3.6-1.6-7.3-2.4-11.2-2.4c-9.3,0-18,4.7-23.1,12.5l-93.5,140.9C293.9,221,290.1,223,286,223z"/>
<path d="M403.6,217.9c-3.8,0-6.9-3.1-6.9-6.9c0-0.9,0.2-1.9,0.6-2.8L442.5,105c7.3-16.5-0.1-35.7-16.6-43
	c-14.6-6.5-31.7-1.4-40.5,11.9l-93.5,140.9c-2,3.2-6.3,4.2-9.5,2.2s-4.2-6.3-2.2-9.5c0.1-0.1,0.1-0.2,0.2-0.3l93.5-140.9
	c14.2-21.4,43-27.2,64.4-13c18.8,12.5,25.9,36.7,16.8,57.3l-45.2,103.2C408.8,216.3,406.3,217.9,403.6,217.9L403.6,217.9z"/>
</svg>
