<?xml version="1.0" encoding="utf-8"?>
<!-- Generator: Adobe Illustrator 24.3.0, SVG Export Plug-In . SVG Version: 6.00 Build 0)  -->
<svg version="1.1" id="Layer_1" xmlns="http://www.w3.org/2000/svg" xmlns:xlink="http://www.w3.org/1999/xlink" x="0px" y="0px"
	 viewBox="0 0 64 64" style="enable-background:new 0 0 64 64;" xml:space="preserve">
<g id="Waves">
	<path d="M16.5,25.2c-5.5,0-11.1-1.9-16.6-5.7c-0.9-0.6-1.2-1.9-0.5-2.8c0.4-0.6,1-0.9,1.7-0.9c0.4,0,0.8,0.1,1.1,0.3
		c4.9,3.3,9.6,4.9,14.4,4.9c4.8,0,9.5-1.6,14.4-4.9c5-3.4,10.7-5.2,16.5-5.2c5.8,0,11.6,1.8,16.7,5.1c0.9,0.6,1.2,1.9,0.6,2.8
		c-0.4,0.6-1,0.9-1.7,0.9c-0.4,0-0.8-0.1-1.1-0.3c-4.4-2.9-9.5-4.5-14.5-4.5c-5.1,0-10,1.5-14.3,4.5C27.6,23.2,22,25.2,16.5,25.2z"
		/>
	<path d="M16.5,24.2c5.3,0,10.7-1.8,16-5.5c9.1-6.2,20.5-6.2,29.9,0c0.5,0.3,1.1,0.2,1.4-0.3c0.3-0.5,0.2-1.1-0.3-1.4
		c-10-6.6-22.4-6.6-32.1,0c-10,6.8-19.8,6.8-29.9,0c-0.5-0.3-1.1-0.2-1.4,0.3c-0.3,0.5-0.2,1.1,0.3,1.4
		C5.9,22.3,11.2,24.2,16.5,24.2z"/>
	<path d="M16.5,39.1c-5.5,0-11.1-1.9-16.6-5.7c-0.9-0.6-1.2-1.9-0.5-2.8c0.4-0.6,1-0.9,1.7-0.9c0.4,0,0.8,0.1,1.1,0.3
		C7,33.4,11.7,35,16.5,35c4.8,0,9.5-1.6,14.4-4.9c5-3.4,10.7-5.2,16.5-5.2c5.8,0,11.6,1.8,16.7,5.1c0.9,0.6,1.2,1.9,0.6,2.8
		c-0.4,0.6-1,0.9-1.7,0.9l0,0c-0.4,0-0.8-0.1-1.1-0.3c-4.4-2.9-9.5-4.5-14.5-4.5c-5.1,0-10,1.5-14.3,4.5
		C27.6,37.2,22,39.1,16.5,39.1L16.5,39.1z"/>
	<path d="M63.5,30.9c-10-6.6-22.4-6.6-32.1,0c-10,6.8-19.8,6.8-29.9,0c-0.5-0.3-1.1-0.2-1.4,0.3c-0.3,0.5-0.2,1.1,0.3,1.4
		c5.4,3.7,10.7,5.5,16.1,5.5c5.3,0,10.7-1.8,16-5.5c9.1-6.2,20.5-6.2,29.9,0c0.5,0.3,1.1,0.2,1.4-0.3C64.1,31.8,64,31.2,63.5,30.9z"
		/>
	<path d="M16.5,53C11,53,5.4,51.1-0.1,47.3c-0.9-0.6-1.2-1.9-0.5-2.8c0.4-0.6,1-0.9,1.7-0.9c0.4,0,0.8,0.1,1.1,0.3
		c4.9,3.3,9.6,5,14.4,5c4.8,0,9.5-1.6,14.4-4.9c5-3.4,10.7-5.2,16.5-5.2c5.8,0,11.6,1.8,16.7,5.1c0.9,0.6,1.2,1.9,0.6,2.8
		c-0.4,0.6-1,0.9-1.7,0.9c-0.4,0-0.8-0.1-1.1-0.3c-4.4-2.9-9.5-4.5-14.5-4.5c-5.1,0-10,1.5-14.3,4.5C27.6,51.1,22,53,16.5,53
		L16.5,53z"/>
	<path d="M63.5,44.8c-10-6.6-22.4-6.6-32.1,0c-10,6.8-19.8,6.8-29.9,0c-0.5-0.3-1.1-0.2-1.4,0.3c-0.3,0.5-0.2,1.1,0.3,1.4
		C5.9,50.2,11.2,52,16.5,52c5.3,0,10.7-1.8,16-5.5c9.1-6.2,20.5-6.2,29.9,0c0.5,0.3,1.1,0.2,1.4-0.3C64.1,45.7,64,45.1,63.5,44.8z"
		/>
</g>
</svg>
