<?xml version="1.0" encoding="iso-8859-1"?>
<!-- Generator: Adobe Illustrator 19.0.0, SVG Export Plug-In . SVG Version: 6.00 Build 0)  -->
<svg version="1.1" id="Capa_1" xmlns="http://www.w3.org/2000/svg" xmlns:xlink="http://www.w3.org/1999/xlink" x="0px" y="0px"
	 viewBox="0 0 512 512" style="enable-background:new 0 0 512 512;" xml:space="preserve">
<g>
	<g>
		<path d="M406,482h-49.141l-15.657-47.635C422.414,401.163,481,321.02,481,226C481,101.383,380.065,0,256,0S31,101.383,31,226
			c0,94.735,58.411,175.091,139.798,208.365L155.141,482H106c-8.284,0-15,6.716-15,15s6.716,15,15,15c38.449,0,267.007,0,300,0
			c8.284,0,15-6.716,15-15S414.284,482,406,482z M61,226c0-108.075,87.477-196,195-196s195,87.925,195,196
			c0,107.523-87.477,195-195,195S61,333.523,61,226z M186.72,482l12.552-38.187C217.574,448.546,236.597,451,256,451
			s38.426-2.454,56.729-7.187L325.28,482H186.72z"/>
	</g>
</g>
<g>
	<g>
		<path d="M408.965,236.187c-16.215-34.563-52.412-55.049-90.315-51.349c-7.848-11.904-18.992-21.441-32.125-27.318
			c0.1-0.145,0.199-0.297,0.299-0.44c6.59-9.458,15.136-17.428,22.675-24.459c12.651-11.799,24.601-22.943,23.487-38.609
			c-1.082-15.214-14.814-24.781-19.327-27.925c-40.811-28.435-96.855-18.422-125.293,22.395
			c-21.587,30.982-21.695,72.552,0.654,103.842C183.902,202.455,181,213.892,181,226c0,2.641,0.141,5.25,0.409,7.822
			c-0.157-0.012-0.318-0.021-0.473-0.034c-11.485-0.978-22.661-4.394-32.52-7.408c-16.544-5.057-32.17-9.834-45.18-1.035
			c-12.634,8.544-14.054,25.22-14.521,30.7c-4.21,49.447,32.594,93.101,82.041,97.31c37.901,3.224,73.79-17.727,89.605-52.491
			c14.787-0.852,28.431-6.011,39.712-14.233c0.083,0.174,0.172,0.35,0.254,0.524c4.896,10.436,7.525,21.821,9.845,31.867
			c3.893,16.855,7.569,32.776,21.694,39.644C367.029,375.764,443.643,310.099,408.965,236.187z M212.979,105.628
			c18.956-27.207,56.317-33.889,83.529-14.93c3.897,2.716,5.589,4.572,6.273,5.482c-1.721,3.286-8.606,9.707-13.744,14.499
			c-8.205,7.652-18.417,17.176-26.829,29.249c-2.377,3.413-4.647,7.09-6.856,11.088c-17.534,0.15-33.645,6.346-46.358,16.602
			C198.983,148.235,200.065,124.163,212.979,105.628z M173.302,323.464c-32.966-2.807-57.501-31.909-54.695-64.874
			c0.403-4.733,1.165-7.127,1.611-8.173c3.709-0.149,12.71,2.599,19.428,4.653c10.73,3.28,24.083,7.362,38.746,8.61
			c4.144,0.353,8.464,0.48,13.029,0.394c8.533,14.419,21.751,25.739,37.547,31.866C217.185,314.291,195.807,325.383,173.302,323.464
			z M256,271c-24.813,0-45-20.187-45-45s20.187-45,45-45s45,20.187,45,45S280.813,271,256,271z M352.97,328.73
			c-4.3,2.018-6.754,2.555-7.884,2.692c-1.985-3.133-4.104-12.306-5.684-19.152c-2.524-10.932-5.667-24.538-11.917-37.859
			c-1.775-3.785-3.838-7.61-6.212-11.545C327.453,251.971,331,239.396,331,226c0-3.917-0.305-7.763-0.886-11.52
			c21.792,1.022,42.095,13.994,51.691,34.447C395.889,278.947,382.995,314.644,352.97,328.73z"/>
	</g>
</g>
<g>
</g>
<g>
</g>
<g>
</g>
<g>
</g>
<g>
</g>
<g>
</g>
<g>
</g>
<g>
</g>
<g>
</g>
<g>
</g>
<g>
</g>
<g>
</g>
<g>
</g>
<g>
</g>
<g>
</g>
</svg>
