<?xml version="1.0" encoding="utf-8"?>
<!-- Generator: Adobe Illustrator 24.3.0, SVG Export Plug-In . SVG Version: 6.00 Build 0)  -->
<svg version="1.1" id="Layer_1" xmlns="http://www.w3.org/2000/svg" xmlns:xlink="http://www.w3.org/1999/xlink" x="0px" y="0px"
	 viewBox="0 0 512 512" style="enable-background:new 0 0 512 512;" xml:space="preserve">
<g id="outline">
	<path d="M116.6,242c-18.7,0-34-15.3-34-34c0-18.8,15.3-34,34-34s34,15.3,34,34S135.3,242,116.6,242L116.6,242z M116.4,194
		c-1.2,0-2.3,0.2-3.5,0.5c-3.6,1-6.6,3.3-8.5,6.5s-2.4,7-1.4,10.6c1.6,6.1,7.2,10.4,13.5,10.4c1.2,0,2.4-0.2,3.6-0.5
		c3.6-1,6.6-3.3,8.5-6.5c1.2-2.1,1.9-4.5,1.9-6.8l-7,7c-1.9,1.9-4.4,2.9-7,2.9c-2.7,0-5.2-1.1-7.1-3c-3.9-3.9-3.8-10.3,0.1-14.1
		L116.4,194z"/>
	<path d="M116.6,240c17.7,0,32-14.3,32-32s-14.3-32-32-32s-32,14.3-32,32C84.6,225.7,98.9,240,116.6,240z M116.6,192
		c1.4,0,2.8,0.2,4.1,0.6l-9.8,9.8c-3.1,3.1-3.2,8.2-0.1,11.3c3.1,3.1,8.2,3.2,11.3,0.1c0,0,0,0,0.1-0.1l9.8-9.8
		c2.3,8.5-2.8,17.3-11.3,19.6s-17.3-2.8-19.6-11.3c-2.3-8.5,2.8-17.3,11.3-19.6C113.8,192.2,115.2,192,116.6,192z"/>
	<path d="M316.5,498c-5.5,0-10-4.5-10-10v-1c0-7.8,2.4-15.3,6.8-21.6c-19.1-2.8-36.1-14.5-45.6-31.3l-35.5,59.1
		c-1.8,3-5.1,4.9-8.6,4.9h-96c-5.5,0-10-4.5-10-10v-7.9c0-13.4,6.6-25.9,17.8-33.3l0.3-0.2c6.6-4.4,14.2-6.7,22.1-6.7
		c2.6,0,5.3,0.3,7.9,0.8l20.9,4.2l16.7-27.9l-3.6-4.4l-41.7-22.2c-47.5-25.4-87.6-63-115.8-108.8c-4.6-7.5-8.9-14.4-12.5-20.2
		c-3.2-5.2-6-10.7-8.3-16.3c-0.1-0.3-0.3-0.6-0.4-0.9c-2.6-6.4-4.6-13.2-6-20.1l-0.2-1c-3.2-17.5,8.3-34.3,25.8-37.5l14.2-2.6
		l3.3-4.4c13.4-17.8,34.7-28.4,57-28.5h0.2c18.7,0,37,7.6,50.2,20.9l4.6,4.6c25.1,9.8,51.4,16.2,78.3,18.9l5.7,0.6
		c5.1,0.5,10.4,0.8,15.5,0.8c14.4,0,28.8-2,42.6-6c14.5-4.1,29.5-6.3,44.6-6.3c40.5,0,79.3,15,109.2,42.2
		c6.7,6.1,12.5,13.1,17.3,20.7c28,45.1,14.6,104.3-29.6,133.2l22.8,30.4c2.7,3.6,2.7,8.6-0.1,12.1l-56,72c-1.9,2.5-4.8,3.9-7.9,3.9
		H316.5z M407.7,478l48.3-62.1L436.6,390c-0.1-0.2-0.3-0.4-0.4-0.6c-7,2.8-14.4,4.2-22,4.3l-65.6,0.3c-5.6,0-10.1-4.5-10.1-10
		c0-5.5,4.5-10,10-10l65.6-0.3c7.3,0,14.5-2.1,20.8-5.9l6.2-3.8c6.2-3.8,11.8-8.5,16.7-13.9c28.8-31.7,26.4-80.8-5.2-109.6
		c-26.3-23.9-60.3-37-95.8-37c-13.2,0-26.4,1.8-39.1,5.5c-15.7,4.5-31.8,6.8-48.1,6.8c-5.8,0-11.7-0.3-17.5-0.9l-5.7-0.6
		c-29.4-2.9-58.2-10-85.6-21c-1.3-0.5-2.4-1.3-3.4-2.2l-6.1-6.1c-9.5-9.5-22.6-15-36.1-15h-0.1c-16,0-31.4,7.7-41,20.5l-5.6,7.5
		c-1.5,2-3.7,3.4-6.2,3.8l-18,3.3c-3.2,0.6-6.1,2.5-7.9,5.1c-1.8,2.7-2.5,6-1.9,9.2l0.1,0.5c0.9,4.4,2.1,8.7,3.6,12.9l34,12.8
		c6.9,2.6,14.2,3.9,21.6,3.9c6.6,0,13.2-1.1,19.4-3.1l0.2-0.1c1-0.3,2-0.5,3-0.5c4.4,0,8.2,2.8,9.5,7c0.8,2.5,0.6,5.3-0.6,7.6
		c-1.2,2.4-3.3,4.1-5.8,4.9c-2.3,0.7-4.6,1.4-6.9,2c16.3,16.4,35.3,29.5,56.5,39c2.9,1.3,5.1,4,5.7,7.1l10.2,50l38.1,46.1
		c2.7,3.3,3,7.9,0.9,11.5l-24,40c-1.8,3-5.1,4.9-8.6,4.9c-0.7,0-1.3-0.1-2-0.2l-27.8-5.6c-1.3-0.3-2.6-0.4-4-0.4
		c-4,0-7.8,1.2-11.1,3.4l-0.3,0.2c-5,3.3-8.2,8.7-8.8,14.6H218l39.4-65.7c1.6-2.6,1.5-5.8-0.1-8.4l-34.2-54.7
		c-1-1.6-1.5-3.4-1.5-5.3v-11.5c0-0.5,0-0.9,0.1-1.4c0.7-4.9,5-8.6,9.9-8.6c0.5,0,1,0,1.4,0.1L306,333c6.8-4.6,14.1-8.7,21.6-12
		l0.5-0.2c28-12.5,57.6-18.8,88.3-18.8h0.3c5.5,0,10,4.5,10,10s-4.5,10-10,10h-0.3c-27.8,0-54.8,5.7-80.2,17.1l-0.5,0.2
		c-18.8,8.4-35.3,21.5-47.6,37.9c-12.8,17.3-11.2,40.9,4,56.2c8,8,19,12.6,30.3,12.6H349l36-0.1l15.9-28.4c1.8-3.1,5.1-5.1,8.7-5.1
		c1.7,0,3.4,0.4,4.9,1.3c2.3,1.3,4,3.4,4.7,6c0.7,2.6,0.4,5.3-0.9,7.6l-18.8,33.5c-1.8,3.1-5.1,5.1-8.7,5.1L349,466c-3.6,0-7,1-10,3
		l-4.5,3c-2.3,1.6-4.2,3.6-5.6,6H407.7z M264.7,378c1.9-4.5,4.4-8.8,7.4-12.8c4-5.3,8.3-10.3,13-15l-41.5-5.9L264.7,378z M59.3,271
		c26.3,42.6,63.5,77.7,107.7,101.3c-0.4-0.8-0.6-1.5-0.8-2.4l-9.7-47.5c-26.2-12.5-49.1-30-68.1-52c-0.3-0.4-0.6-0.7-0.8-1.1
		c-7.6-0.6-15.1-2.2-22.2-4.9l-13.1-4.9L59.3,271z"/>
	<path d="M17.1,223.6c1.4,6.8,3.3,13.4,5.9,19.8c0.1,0.3,0.2,0.5,0.3,0.8c2.3,5.6,5,10.9,8.2,16.1c3.6,5.8,7.9,12.7,12.5,20.2
		c28.1,45.6,67.8,82.9,115.1,108.1l42,22.4l4.8,5.8L187.7,447l-22.3-4.5c-9.9-2-20.2,0-28.5,5.6l-0.3,0.2
		c-10.6,7-16.9,18.9-16.9,31.6v7.9c0,4.4,3.6,8,8,8h96c2.8,0,5.4-1.5,6.9-3.9l37.3-62.2c9.3,19.1,28,32,49.2,33.8
		c-5.5,6.5-8.5,14.7-8.5,23.2v1c0,4.4,3.6,8,8,8h96c2.5,0,4.8-1.1,6.3-3.1l56-72c2.2-2.8,2.2-6.8,0.1-9.7l-24-32
		c0,0-0.1-0.1-0.1-0.1c44.8-27.8,58.6-86.8,30.8-131.6c-4.7-7.5-10.3-14.3-16.9-20.3l0,0c-41.1-37.3-98.6-50.8-151.9-35.5
		c-19.1,5.5-39.1,7.3-58.9,5.3l-5.7-0.6c-27.1-2.7-53.8-9.2-79.2-19.2l-4.9-4.9c-13-13-30.6-20.3-49-20.3
		c-21.8,0.1-42.3,10.3-55.4,27.7l-3.8,5l-14.9,2.8c-16.4,3-27.2,18.8-24.2,35.2c0,0.1,0.1,0.3,0.1,0.4L17.1,223.6z M166.6,374.4
		c-44.7-23.9-82.4-59.2-109-102.4c-3.6-5.9-7.1-11.5-10.1-16.4l18.5,7c7.3,2.7,15,4.4,22.7,4.9c0.3,0.6,0.7,1.2,1.1,1.7
		c18.9,21.9,42.1,39.6,68.3,51.9l9.9,48.5c0.3,1.3,0.8,2.5,1.7,3.5l4.5,5.5L166.6,374.4z M265.1,382.5l-25.5-40.7l49.8,7.1
		c-5.7,5.4-11,11.3-15.7,17.6C270.1,371.3,267.2,376.7,265.1,382.5L265.1,382.5z M34.9,209.2c2.1-3.2,5.4-5.3,9.2-6l18-3.3
		c2-0.4,3.7-1.5,4.9-3.1l5.6-7.5c10.1-13.4,25.8-21.3,42.6-21.3c14.1,0,27.7,5.6,37.7,15.6l6.1,6.1c0.8,0.8,1.7,1.4,2.7,1.8
		c27.2,10.9,55.9,17.9,85,20.8l5.7,0.6c21.8,2.2,43.8,0.2,64.9-5.8c48-13.7,99.8-1.6,136.7,32l0,0c32.5,29.6,34.9,79.9,5.4,112.4
		c-5,5.5-10.8,10.3-17.2,14.2l-6.2,3.8c-6.6,4-14.1,6.2-21.8,6.2l-65.6,0.3c-4.4,0-8,3.6-8,8s3.6,8,8,8h0l65.6-0.3
		c7.9,0,15.7-1.7,22.9-4.8c0.3,0.7,0.6,1.3,1.1,1.9l20.3,27.1L408.6,480h-82.8c1.5-3.9,4.1-7.3,7.7-9.7l4.5-3
		c3.3-2.2,7.1-3.4,11.1-3.4h0l41.8-0.1c2.9,0,5.5-1.6,6.9-4.1l18.8-33.5c2.2-3.9,0.8-8.7-3.1-10.9c-3.9-2.2-8.7-0.8-10.9,3.1
		l-16.5,29.4L349,448h-26.5c-11.9,0-23.4-4.7-31.8-13.2C275,419,273.2,394,286.5,376c12.6-16.8,29.3-30,48.4-38.6l0.5-0.2
		c25.6-11.4,53.2-17.3,81.2-17.2c4.4,0,8-3.6,8-8s-3.6-8-8-8c-30.2,0-60.1,6.3-87.7,18.6l-0.5,0.2c-7.7,3.4-15,7.5-22,12.3
		l-73.7-10.5c-4.4-0.6-8.4,2.4-9.1,6.8c-0.1,0.4-0.1,0.8-0.1,1.1V344c0,1.5,0.4,3,1.2,4.2l34.2,54.7c2,3.2,2,7.2,0.1,10.4l-40,66.7
		h-83.5c0-7.3,3.7-14.2,9.8-18.2l0.3-0.2c4.8-3.3,10.8-4.4,16.5-3.3l27.8,5.6c3.3,0.7,6.7-0.8,8.4-3.7l24-40
		c1.7-2.9,1.5-6.6-0.7-9.2l-38.4-46.5L173.1,314c-0.5-2.5-2.2-4.7-4.6-5.7c-22.4-10-42.7-24.3-59.7-42c3.5-0.7,6.9-1.5,10.3-2.7
		c4.2-1.3,6.5-5.9,5.2-10.1c-1.3-4.2-5.9-6.5-10.1-5.2c-0.1,0-0.1,0-0.2,0.1c-13.8,4.6-28.7,4.3-42.3-0.8l-34.9-13.1
		c-1.7-4.6-3-9.3-4-14.1l-0.1-0.5C31.9,216.2,32.7,212.3,34.9,209.2z"/>
	<path d="M286.9,246.3c-27.1,0-54.2-3.1-80.6-9.3l-9.5-2.2c-5.4-1.3-8.7-6.7-7.4-12.1c1.1-4.5,5.1-7.7,9.7-7.7
		c0.8,0,1.6,0.1,2.3,0.3l9.4,2.2c25,5.8,50.6,8.7,76.3,8.7c26.2,0,52.4-3.1,78-9.1l0.2,0c0.7-0.2,1.5-0.3,2.2-0.3
		c4.7,0,8.7,3.2,9.7,7.8c1.2,5.4-2.1,10.7-7.5,12c-27,6.4-54.7,9.7-82.4,9.7H286.9z"/>
	<path d="M197.3,232.9l9.4,2.2c26.3,6.1,53.3,9.2,80.3,9.2c27.7,0,55.2-3.2,82.1-9.6c4.3-1,7-5.3,6-9.6c-1-4.3-5.3-7-9.6-6
		c0,0-0.1,0-0.1,0c-51,12.1-104.1,12.2-155.1,0.4l-9.4-2.2c-4.3-1-8.6,1.6-9.6,5.9c-1,4.3,1.6,8.6,5.9,9.6
		C197.2,232.9,197.3,232.9,197.3,232.9L197.3,232.9z"/>
	<path d="M307.4,280.8c-33.4,0-66.4-5.2-98.2-15.4l-20.4-6.6c-5.2-1.7-8.1-7.4-6.3-12.7c1.4-4.1,5.2-6.8,9.5-6.8
		c1.1,0,2.1,0.2,3.2,0.5l20.2,6.5c29.8,9.6,60.8,14.4,92.1,14.4c14.7,0,29.5-1.1,44-3.2c0.5-0.1,1-0.1,1.5-0.1
		c4.9,0,9.2,3.7,9.9,8.6c0.4,2.6-0.3,5.3-1.9,7.4c-1.6,2.1-3.9,3.5-6.6,3.9c-15.4,2.3-31.1,3.4-46.7,3.4H307.4z"/>
	<path d="M189.6,257l20.2,6.5c31.6,10.1,64.6,15.3,97.7,15.3c15.6,0,31.1-1.1,46.5-3.4c4.4-0.6,7.4-4.7,6.8-9.1
		c-0.6-4.4-4.7-7.4-9.1-6.8c0,0,0,0,0,0c-45.9,6.8-92.8,2.9-137-11.3l-20.2-6.5c-4.2-1.4-8.7,0.9-10.1,5.1s0.9,8.7,5.1,10.1
		C189.5,256.9,189.5,257,189.6,257L189.6,257z"/>
	<path d="M155,276c-12.7,0-23-10.3-23-23c0-12.7,10.3-23,23-23c12.7,0,23,10.3,23,23C178,265.7,167.7,276,155,276z M155,250
		c-1.7,0-3,1.3-3,3c0,1.7,1.3,3,3,3s3-1.3,3-3C158,251.3,156.7,250,155,250z"/>
	<path d="M134,253c0,11.6,9.4,21,21,21s21-9.4,21-21c0-11.6-9.4-21-21-21C143.4,232,134,241.4,134,253z M155,248c2.8,0,5,2.2,5,5
		s-2.2,5-5,5s-5-2.2-5-5C150,250.2,152.2,248,155,248z"/>
	<path d="M242.3,125.7c3.1,3.1,8.2,3.1,11.3,0c0,0,0,0,0,0l2.3-2.3l2.3,2.3c3.1,3.1,8.2,3.1,11.3,0c3.1-3.1,3.1-8.2,0-11.3l-2.3-2.3
		l2.3-2.3c3.1-3.1,3.1-8.2,0-11.3c-3.1-3.1-8.2-3.1-11.3,0l-2.3,2.3l-2.3-2.3c-3.1-3.1-8.2-3.1-11.3,0c-3.1,3.1-3.1,8.2,0,11.3
		l2.3,2.3l-2.3,2.3C239.2,117.5,239.2,122.5,242.3,125.7C242.3,125.7,242.3,125.7,242.3,125.7z"/>
	<path d="M50.3,133.7c3.1,3.1,8.2,3.1,11.3,0c0,0,0,0,0,0l2.3-2.3l2.3,2.3c3.1,3.1,8.2,3.1,11.3,0s3.1-8.2,0-11.3l0,0l-2.3-2.3
		l2.3-2.3c3.1-3.1,3.1-8.2,0-11.3s-8.2-3.1-11.3,0l-2.3,2.3l-2.3-2.3c-3.1-3.1-8.2-3.1-11.3,0c-3.1,3.1-3.1,8.2,0,11.3l0,0l2.3,2.3
		l-2.3,2.3C47.2,125.5,47.2,130.5,50.3,133.7C50.3,133.7,50.3,133.7,50.3,133.7z"/>
	<path d="M154.3,69.7c3.1,3.1,8.2,3.1,11.3,0c0,0,0,0,0,0l2.3-2.3l2.3,2.3c3.1,3.1,8.2,3.1,11.3,0c3.1-3.1,3.1-8.2,0-11.3l-2.3-2.3
		l2.3-2.3c3.1-3.1,3.1-8.2,0-11.3c-3.1-3.1-8.2-3.1-11.3,0l0,0l-2.3,2.3l-2.3-2.3c-3.1-3.1-8.2-3.1-11.3,0c-3.1,3.1-3.1,8.2,0,11.3
		l2.3,2.3l-2.3,2.3C151.2,61.5,151.2,66.5,154.3,69.7C154.3,69.7,154.3,69.7,154.3,69.7z"/>
</g>
</svg>
