<svg id="Layer_1" enable-background="new 0 0 511.529 511.529" height="512" viewBox="0 0 511.529 511.529" width="512" xmlns="http://www.w3.org/2000/svg"><path d="m496.249 481.529h-62.518v-22.456c0-8.284-6.716-15-15-15s-15 6.716-15 15v22.456h-103.664v-78.638h111.236c8.617 0 16.327-4.814 20.123-12.564 3.806-7.772 2.876-16.847-2.428-23.681l-61.958-79.834h7.217c8.284 0 15.733-4.609 19.442-12.029 3.719-7.44 2.929-16.194-2.061-22.845l-71.999-95.95 20.874.078h.083c8.342 0 15.809-4.65 19.5-12.151 3.713-7.547 2.818-16.361-2.297-22.952l-85.602-111.3c-4.766-6.141-11.957-9.663-19.73-9.663s-14.964 3.522-19.771 9.714l-85.684 111.406c-5.111 6.586-6.035 15.343-2.411 22.854 3.615 7.491 11.02 12.204 19.325 12.3l21.577.25-72.096 95.35c-5.025 6.646-5.84 15.41-2.127 22.872 3.703 7.442 11.16 12.065 19.46 12.065h7.154l-61.958 79.835c-5.304 6.834-6.234 15.908-2.428 23.681 3.796 7.75 11.506 12.564 20.123 12.564h111.236v78.638h-56.455v-39.327c0-8.284-6.716-15-15-15s-15 6.716-15 15v39.327h-32.687v-19.456c0-8.284-6.716-15-15-15s-15 6.716-15 15v19.456h-40.445c-8.284 0-15 6.716-15 15s6.716 15 15 15h480.97c8.284 0 15-6.716 15-15s-6.717-15-15.001-15zm-315.502-355.062 71.72-93.25 71.362 92.786-34.229-.128c-3.426.118-7.359 1.03-10.694 4.425l-26.935 27.093-25.945-26.099c-2.362-2.23-5.882-4.436-10.464-4.424zm36.186 38.231 16.52 16.618c4.938 4.967 11.515 7.702 18.52 7.702 7.004 0 13.581-2.735 18.519-7.703l17.464-17.567 69.832 93.062h-21.378c-3.12.145-6.289.73-9.649 3.515l-32.763 27.526-30.093-27.207c-4.435-5.09-14.346-6.79-20.813-1.195l-33.857 29.156-29.207-26.405c-1.939-2.363-6.488-5.274-11.506-5.389h-21.238zm-46.57 129.207 21.297 19.255c4.956 4.481 11.233 6.729 17.516 6.729 6.07 0 12.146-2.1 17.038-6.312l26.379-22.716 23.799 21.517c9.625 8.702 24.376 8.97 34.311.623l23.418-19.674 61.749 79.565h-286.807zm64.503 187.624v-78.638h35.2v78.638z"/></svg>