<?xml version="1.0" encoding="iso-8859-1"?>
<!-- Generator: Adobe Illustrator 21.0.0, SVG Export Plug-In . SVG Version: 6.00 Build 0)  -->
<svg xmlns="http://www.w3.org/2000/svg" xmlns:xlink="http://www.w3.org/1999/xlink" version="1.1" id="Capa_1" x="0px" y="0px" viewBox="0 0 512 512" style="enable-background:new 0 0 512 512;" xml:space="preserve" width="512" height="512">
<path d="M386.976,88.021c-9.035,0-17.972,0.961-26.709,2.866c-9.694-23.972-25.861-45.308-46.522-61.111  C288.28,10.299,257.835,0.004,225.699,0.004c-31.383,0-61.253,9.862-86.381,28.521c-22.332,16.581-39.148,38.721-49.001,64.393  c-24.222,7.008-46.046,21.371-62.133,41.045C10.009,156.188,0,184.265,0,213.021c0,68.742,55.79,124.697,124.477,124.993  l-5.151,11.595c-2.062,4.64-1.636,10.008,1.131,14.265c2.767,4.257,7.5,6.825,12.577,6.825h93.646l-34.862,122.18  c-1.991,6.977,1.297,14.379,7.809,17.578c2.116,1.04,4.375,1.539,6.608,1.539c4.64,0,9.171-2.155,12.079-6.097L342.15,338.021  h44.825c68.938,0,125.024-56.075,125.024-125S455.914,88.021,386.976,88.021z M258.533,346.664  c-2.835-3.757-7.268-5.965-11.974-5.965h-90.447l59.704-134.387h66.342l-38.982,77.04c-2.353,4.65-2.124,10.188,0.605,14.628  c2.729,4.439,7.567,7.145,12.779,7.145h72.579L243.439,421.3l17.544-61.485C262.274,355.29,261.367,350.421,258.533,346.664z   M386.976,308.021H364.28l6.633-8.992c3.359-4.555,3.87-10.613,1.318-15.666c-2.552-5.052-7.73-8.238-13.39-8.238H280.96  l38.983-77.04c2.353-4.65,2.124-10.189-0.605-14.628c-2.729-4.439-7.566-7.145-12.778-7.145H206.066  c-5.929,0-11.301,3.492-13.708,8.91l-54.555,122.799h-12.778c-52.396,0-95.024-42.617-95.024-95  c0-21.854,7.603-43.186,21.407-60.068c13.623-16.661,32.637-28.31,53.54-32.802c5.257-1.13,9.507-4.986,11.14-10.108  c7.247-22.729,21.848-43.126,41.115-57.432c19.918-14.789,43.604-22.607,68.497-22.607c25.491,0,49.634,8.161,69.82,23.601  c16.504,12.623,29.37,29.692,37.041,48.845c-7.312,3.847-14.267,8.422-20.717,13.711c-6.406,5.254-7.34,14.705-2.087,21.11  c2.966,3.616,7.269,5.489,11.608,5.488c3.346,0,6.714-1.114,9.503-3.401c8.423-6.908,17.732-12.187,27.651-15.74  c1.352-0.484,2.527-1.283,3.583-2.288c8.078-2.187,16.414-3.31,24.875-3.31c52.397,0,95.024,42.617,95.024,95  C482,265.404,439.372,308.021,386.976,308.021z"/>















</svg>
